<mxfile host="app.diagrams.net" modified="2021-02-27T07:37:44.196Z" agent="5.0 (Windows NT 10.0; Win64; x64) AppleWebKit/537.36 (KHTML, like Gecko) Chrome/65.0.3325.146 Safari/537.36" etag="i_DMpqBAqAdSnKOp8kys" version="14.4.2" type="github">
  <diagram id="f3ogsjaQvRPJAqi6hNIG" name="Page-1">
    <mxGraphModel dx="1038" dy="511" grid="1" gridSize="10" guides="1" tooltips="1" connect="1" arrows="1" fold="1" page="1" pageScale="1" pageWidth="827" pageHeight="1169" math="0" shadow="0">
      <root>
        <mxCell id="0" />
        <mxCell id="1" parent="0" />
        <mxCell id="0mNbU2bgWqvWrY6WgXzK-32" style="edgeStyle=orthogonalEdgeStyle;rounded=0;orthogonalLoop=1;jettySize=auto;html=1;fontSize=20;" edge="1" parent="1" source="0mNbU2bgWqvWrY6WgXzK-1">
          <mxGeometry relative="1" as="geometry">
            <mxPoint x="444" y="250" as="targetPoint" />
          </mxGeometry>
        </mxCell>
        <mxCell id="0mNbU2bgWqvWrY6WgXzK-1" value="&lt;span style=&quot;font-size: 20px&quot;&gt;客户端&lt;/span&gt;" style="ellipse;whiteSpace=wrap;html=1;fillColor=#d5e8d4;strokeColor=#82b366;" vertex="1" parent="1">
          <mxGeometry x="384" y="110" width="120" height="80" as="geometry" />
        </mxCell>
        <mxCell id="0mNbU2bgWqvWrY6WgXzK-30" style="edgeStyle=orthogonalEdgeStyle;rounded=0;orthogonalLoop=1;jettySize=auto;html=1;fontSize=20;" edge="1" parent="1" source="0mNbU2bgWqvWrY6WgXzK-9" target="0mNbU2bgWqvWrY6WgXzK-10">
          <mxGeometry relative="1" as="geometry" />
        </mxCell>
        <mxCell id="0mNbU2bgWqvWrY6WgXzK-31" style="edgeStyle=orthogonalEdgeStyle;rounded=0;orthogonalLoop=1;jettySize=auto;html=1;fontSize=20;" edge="1" parent="1" source="0mNbU2bgWqvWrY6WgXzK-9" target="0mNbU2bgWqvWrY6WgXzK-27">
          <mxGeometry relative="1" as="geometry" />
        </mxCell>
        <mxCell id="0mNbU2bgWqvWrY6WgXzK-9" value="&lt;font style=&quot;font-size: 20px&quot;&gt;SOA&lt;/font&gt;" style="rounded=0;whiteSpace=wrap;html=1;fillColor=#dae8fc;strokeColor=#6c8ebf;" vertex="1" parent="1">
          <mxGeometry x="280" y="260" width="330" height="30" as="geometry" />
        </mxCell>
        <mxCell id="0mNbU2bgWqvWrY6WgXzK-10" value="&lt;font style=&quot;font-size: 20px;&quot;&gt;结点A&lt;/font&gt;" style="swimlane;html=1;startSize=50;horizontal=1;containerType=tree;newEdgeStyle={&quot;edgeStyle&quot;:&quot;elbowEdgeStyle&quot;,&quot;startArrow&quot;:&quot;none&quot;,&quot;endArrow&quot;:&quot;none&quot;};fontSize=20;" vertex="1" parent="1">
          <mxGeometry x="160" y="420" width="160" height="170" as="geometry" />
        </mxCell>
        <mxCell id="0mNbU2bgWqvWrY6WgXzK-26" value="&lt;span style=&quot;font-size: 20px&quot;&gt;数据副本A&lt;br&gt;a=1&lt;br&gt;&lt;/span&gt;" style="ellipse;whiteSpace=wrap;html=1;fillColor=#fff2cc;strokeColor=#d6b656;" vertex="1" parent="0mNbU2bgWqvWrY6WgXzK-10">
          <mxGeometry x="20" y="70" width="120" height="80" as="geometry" />
        </mxCell>
        <mxCell id="0mNbU2bgWqvWrY6WgXzK-27" value="&lt;font style=&quot;font-size: 20px&quot;&gt;结点B&lt;/font&gt;" style="swimlane;html=1;startSize=50;horizontal=1;containerType=tree;newEdgeStyle={&quot;edgeStyle&quot;:&quot;elbowEdgeStyle&quot;,&quot;startArrow&quot;:&quot;none&quot;,&quot;endArrow&quot;:&quot;none&quot;};fontSize=20;" vertex="1" parent="1">
          <mxGeometry x="550" y="420" width="190" height="170" as="geometry" />
        </mxCell>
        <mxCell id="0mNbU2bgWqvWrY6WgXzK-28" value="&lt;span style=&quot;font-size: 20px&quot;&gt;数据副本B&lt;br&gt;a=1&lt;br&gt;&lt;/span&gt;" style="ellipse;whiteSpace=wrap;html=1;fillColor=#fff2cc;strokeColor=#d6b656;" vertex="1" parent="0mNbU2bgWqvWrY6WgXzK-27">
          <mxGeometry x="40" y="70" width="120" height="80" as="geometry" />
        </mxCell>
        <mxCell id="0mNbU2bgWqvWrY6WgXzK-29" value="数据同步" style="endArrow=classic;startArrow=classic;html=1;dashed=1;fontSize=20;" edge="1" parent="1">
          <mxGeometry width="50" height="50" relative="1" as="geometry">
            <mxPoint x="332" y="500" as="sourcePoint" />
            <mxPoint x="532" y="500" as="targetPoint" />
            <mxPoint as="offset" />
          </mxGeometry>
        </mxCell>
      </root>
    </mxGraphModel>
  </diagram>
</mxfile>
